<svg width="18" height="18" viewBox="0 0 18 18" fill="none" xmlns="http://www.w3.org/2000/svg">
<path d="M3.01861 0.332287L9 6.31346L14.9568 0.356901C15.0612 0.245791 15.1869 0.156907 15.3265 0.0955783C15.4661 0.0342499 15.6166 0.00174063 15.7691 0C16.0955 0 16.4085 0.129662 16.6393 0.360462C16.8701 0.591262 16.9998 0.904294 16.9998 1.23069C17.0027 1.38158 16.9747 1.53146 16.9175 1.67114C16.8604 1.81081 16.7753 1.93734 16.6675 2.04295L10.6492 7.99951L16.6675 14.0176C16.8703 14.216 16.9893 14.4848 16.9998 14.7683C16.9998 15.0947 16.8701 15.4078 16.6393 15.6386C16.4085 15.8694 16.0955 15.999 15.7691 15.999C15.6122 16.0055 15.4557 15.9794 15.3095 15.9222C15.1633 15.8649 15.0306 15.778 14.9199 15.6667L9 9.68556L3.03092 15.6544C2.92693 15.7618 2.8027 15.8476 2.66539 15.9067C2.52809 15.9659 2.38043 15.9972 2.23094 15.999C1.90453 15.999 1.59148 15.8694 1.36068 15.6386C1.12987 15.4078 1.0002 15.0947 1.0002 14.7683C0.997331 14.6174 1.02533 14.4676 1.08247 14.3279C1.13961 14.1882 1.2247 14.0617 1.3325 13.9561L7.35081 7.99951L1.3325 1.98142C1.12966 1.78298 1.01071 1.51426 1.0002 1.23069C1.0002 0.904294 1.12987 0.591262 1.36068 0.360462C1.59148 0.129662 1.90453 0 2.23094 0C2.52632 0.00369208 2.80939 0.123069 3.01861 0.332287Z" fill="black" fill-opacity="0.8"/>
</svg>
